<?xml version="1.0" encoding="UTF-8" standalone="no"?>
<!-- Created with Inkscape (http://www.inkscape.org/) -->

<svg
   xmlns:dc="http://purl.org/dc/elements/1.1/"
   xmlns:cc="http://creativecommons.org/ns#"
   xmlns:rdf="http://www.w3.org/1999/02/22-rdf-syntax-ns#"
   xmlns:svg="http://www.w3.org/2000/svg"
   xmlns="http://www.w3.org/2000/svg"
   xmlns:sodipodi="http://sodipodi.sourceforge.net/DTD/sodipodi-0.dtd"
   xmlns:inkscape="http://www.inkscape.org/namespaces/inkscape"
   width="1000"
   height="1233.819"
   id="svg20619"
   version="1.1"
   inkscape:version="0.48.2 r9819"
   sodipodi:docname="New document 18">
  <defs
     id="defs20621">
    <clipPath
       clipPathUnits="userSpaceOnUse"
       id="clipPath19473">
      <path
         inkscape:connector-curvature="0"
         d="m 440.2,80.129 52.803,0 0,64.825 -52.803,0 0,-64.825 z"
         id="path19475" />
    </clipPath>
    <clipPath
       clipPathUnits="userSpaceOnUse"
       id="clipPath19483">
      <path
         inkscape:connector-curvature="0"
         d="m 440.2,80.129 51.757,0 0,63.871 -51.757,0 0,-63.871 z"
         id="path19485" />
    </clipPath>
    <clipPath
       clipPathUnits="userSpaceOnUse"
       id="clipPath19527">
      <path
         inkscape:connector-curvature="0"
         d="m 440.2,80.129 51.757,0 0,63.871 -51.757,0 0,-63.871 z"
         id="path19529" />
    </clipPath>
  </defs>
  <sodipodi:namedview
     id="base"
     pagecolor="#ffffff"
     bordercolor="#666666"
     borderopacity="1.0"
     inkscape:pageopacity="0.0"
     inkscape:pageshadow="2"
     inkscape:zoom="0.35"
     inkscape:cx="664.9907"
     inkscape:cy="466.13332"
     inkscape:document-units="px"
     inkscape:current-layer="layer1"
     showgrid="false"
     fit-margin-left="0.5"
     fit-margin-bottom="0.5"
     fit-margin-top="0.5"
     fit-margin-right="0.5"
     inkscape:window-width="1065"
     inkscape:window-height="1035"
     inkscape:window-x="845"
     inkscape:window-y="-21"
     inkscape:window-maximized="0" />
  <metadata
     id="metadata20624">
    <rdf:RDF>
      <cc:Work
         rdf:about="">
        <dc:format>image/svg+xml</dc:format>
        <dc:type
           rdf:resource="http://purl.org/dc/dcmitype/StillImage" />
        <dc:title></dc:title>
      </cc:Work>
    </rdf:RDF>
  </metadata>
  <g
     inkscape:label="Layer 1"
     inkscape:groupmode="layer"
     id="layer1"
     transform="translate(-412.86644,289.60918)">
    <g
       transform="matrix(19.301845,0,0,-19.301845,-8083.3113,2490.3565)"
       id="g19469">
      <g
         id="g19471"
         clip-path="url(#clipPath19473)">
        <path
           inkscape:connector-curvature="0"
           d="m 484.123,84.415 -0.306,0.975 -0.207,0.002 -0.001,-1.199 0.129,-0.001 0,1.018 0.322,-1.018 0.128,0 0.321,1.018 -0.001,-1.018 0.128,-10e-4 10e-4,1.2 -0.206,0 -0.308,-0.976 z"
           style="fill:#010101;fill-opacity:1;fill-rule:nonzero;stroke:none"
           id="path19477" />
        <g
           id="g19479">
          <g
             id="g19481"
             clip-path="url(#clipPath19483)">
            <path
               inkscape:connector-curvature="0"
               d="m 482.582,85.264 0.355,-10e-4 0,-1.07 0.129,0 -10e-4,1.07 0.374,0 -0.001,0.128 -0.856,10e-4 0,-0.128 z"
               style="fill:#010101;fill-opacity:1;fill-rule:nonzero;stroke:none"
               id="path19487" />
            <path
               inkscape:connector-curvature="0"
               d="m 465.939,82.006 c -0.765,0.001 -1.505,0.061 -2.225,0.123 -2.397,0.234 -2.801,0.69 -2.801,0.69 -0.841,-0.884 -7.447,-3.262 -12.425,-0.25 -3.363,2.032 -4.499,5.179 -4.704,8.335 -0.234,3.598 0.397,8.169 -2.522,8.586 -0.24,1.727 -0.144,4.969 2.935,7.681 2.799,2.466 6.664,2.047 6.664,2.047 -0.343,0.74 -0.613,1.53 -0.532,3.402 0.108,2.465 1.146,3.201 1.146,3.201 0.15,0.838 0.551,2.464 0.75,3.3 0.2,0.838 1.044,2.61 1.044,2.61 l -1.179,0.054 0.011,3.2 -1.084,1.142 c 0.053,1.034 0.257,2.809 0.434,4.284 0.077,0.5 0.155,0.952 0.233,1.317 0.926,4.817 2.533,8.34 4.553,9.8 0.915,0.661 1.91,0.885 2.877,0.646 l 0.175,-0.042 c 0.086,0.09 0.178,0.169 0.283,0.229 1.478,0.855 6.855,0.957 8.167,-0.07 0.353,-0.275 0.898,-0.711 0.026,-5.372 -0.373,-1.987 -1.081,-4.635 -1.081,-4.635 l 0.488,-0.001 -0.004,-2.792 c 0.631,0.624 1.289,1.209 1.991,1.25 1.15,0.067 3.467,-0.63 3.467,-0.63 10.846,-2.916 18.392,-12.662 18.353,-23.703 C 490.932,92.905 479.7,81.957 465.939,82.006 m 6.97,49.041 c -0.255,0.076 -2.521,0.745 -3.807,0.671 -0.337,-0.02 -0.652,-0.118 -0.952,-0.256 l 0.002,1.796 -0.207,0 c 0.239,0.959 0.562,2.32 0.78,3.482 0.832,4.438 0.524,5.611 -0.384,6.322 -1.736,1.359 -7.622,1.093 -9.259,0.145 -0.013,-0.007 -0.025,-0.017 -0.038,-0.026 -1.156,0.198 -2.318,-0.093 -3.38,-0.861 -2.821,-2.039 -4.245,-6.785 -4.937,-10.387 -0.077,-0.361 -0.158,-0.823 -0.246,-1.404 -0.162,-1.34 -0.385,-3.249 -0.441,-4.353 l -0.021,-0.42 1.102,-1.16 -0.013,-3.746 0.685,-0.032 c -0.214,-0.511 -0.618,-1.88 -0.618,-1.88 -0.195,-0.81 -0.453,-1.881 -0.604,-2.635 -0.435,-0.486 -1.129,-1.573 -1.219,-3.64 -0.046,-1.056 0.015,-1.822 0.151,-2.462 -1.524,-0.093 -3.957,-0.539 -5.953,-2.298 -3.447,-3.037 -3.52,-6.659 -3.256,-8.548 l 0.101,-0.73 0.729,-0.103 c 1.416,-0.204 1.557,-2.288 1.611,-5.446 0.012,-0.742 0.025,-1.509 0.072,-2.236 0.269,-4.133 2.011,-7.197 5.175,-9.109 4.712,-2.85 10.839,-1.27 12.996,-0.047 0.614,-0.24 1.508,-0.419 2.655,-0.53 0.77,-0.066 1.522,-0.123 2.303,-0.125 14.3,-0.049 25.973,11.333 26.021,25.376 0.04,11.484 -7.804,21.62 -19.048,24.642"
               style="fill:#ffffff;fill-opacity:1;fill-rule:nonzero;stroke:none"
               id="path19489" />
          </g>
        </g>
        <path
           inkscape:connector-curvature="0"
           d="m 466.095,107.296 c 0,0 -0.003,-0.824 -0.811,-0.828 -0.495,-0.002 -0.798,0.272 -0.868,0.5 -0.159,0.508 0.161,0.832 0.161,0.832 0,0 -1.482,0.245 -1.814,-10e-4 -0.331,-0.247 0.164,-0.971 0.675,-1.426 0.438,-0.31 1.089,-0.7 1.678,-0.783 0.497,-0.068 1.52,0.318 2.146,0.897 -0.185,0.428 -1.167,0.809 -1.167,0.809"
           style="fill:#ffffff;fill-opacity:1;fill-rule:nonzero;stroke:none"
           id="path19491" />
        <path
           inkscape:connector-curvature="0"
           d="m 474.701,107.096 c -0.013,-0.342 -0.417,-0.938 -0.829,-0.937 -0.414,10e-4 -0.693,0.165 -0.817,0.54 -0.421,-0.227 -0.771,-0.498 -0.843,-0.75 0.181,-0.265 0.996,-0.416 1.41,-0.417 0.412,-10e-4 1.143,0.072 1.486,0.241 0.345,0.173 0.845,0.962 0.755,1.186 -0.091,0.03 -0.75,0.136 -1.162,0.137"
           style="fill:#ffffff;fill-opacity:1;fill-rule:nonzero;stroke:none"
           id="path19493" />
        <path
           inkscape:connector-curvature="0"
           d="m 469.794,99.357 c -0.659,0.332 -0.825,0.252 -1.32,0.335 -0.494,0.086 -0.823,0.499 -0.244,0.827 0.579,0.329 1.156,0.009 1.485,-0.408 0.329,-0.413 0.739,-1.087 0.079,-0.754 m -2.685,5.655 c -0.643,-0.522 -0.492,-1.632 -0.943,-1.481 -0.453,0.155 -0.226,0.617 -0.471,1.03 -0.247,0.414 -1.074,1.114 -0.579,1.029 -0.589,0.083 -1.24,0.473 -1.678,0.783 -0.579,-0.163 -1.483,0.089 -1.894,0.422 -0.413,0.33 -0.716,0.597 -0.137,0.843 0.288,0.123 0.392,0.204 0.362,0.277 -0.073,0.035 -0.197,0.137 -0.443,0.219 -0.495,0.168 -1.155,0.417 -1.072,0.829 0.085,0.413 0.745,0.41 0.745,0.41 0,0 2.972,-0.175 4.459,-0.592 1.484,-0.417 3.713,-1.086 4.123,-1.502 0.411,-0.415 0.699,-1.36 -0.517,-1.275 -0.834,0.059 -1.014,-0.267 -1.253,-0.384 -0.222,-0.174 -0.434,-0.388 -0.702,-0.608 m 10.596,3.871 c -0.035,0.726 -0.867,2.179 -1.802,2.469 -1.319,0.405 -3.036,-0.998 -3.036,-0.998 -0.861,-0.513 -1.46,-1.923 -1.46,-1.923 0,0 -0.786,0.676 -1.358,1.192 -0.572,0.522 -2.646,0.548 -2.646,0.548 0,0 -1.018,-0.127 -1.356,-0.179 -1.252,-0.198 -1.84,0.162 -1.84,0.162 -0.861,0.175 -1.904,0.364 -1.904,0.364 0,0 -2.259,-0.023 -3.607,-1.154 -0.537,-0.452 -1.015,-0.977 -1.276,-1.932 -0.245,-0.89 0.515,-1.057 0.592,-1.882 0.054,-0.599 0.781,-0.88 1.341,-0.96 0.567,-0.08 1.245,-0.096 1.245,-0.096 0,0 -0.674,-1.404 -0.926,-2.123 -0.174,-0.502 -0.187,-1.36 -0.187,-1.36 0.498,-0.161 1.884,0.162 1.958,-1.822 0.077,-1.98 -0.101,-4.015 1.216,-5.587 1.315,-1.572 1.777,-2.907 3.836,-3.26 1.814,-0.311 3.494,-0.068 4.573,0.031 0.684,0.727 0.362,2.284 -0.464,2.121 -0.827,-0.161 -1.654,-0.325 -2.893,-0.321 -1.239,0.005 -2.31,0.34 -2.31,0.34 0,0 1.466,1.84 2.745,1.695 0.916,-0.104 2.215,-0.061 2.794,-0.063 0.577,-10e-4 0.589,0.779 0.258,1.193 -0.327,0.414 -1.411,0.215 -2.07,0.382 -0.659,0.168 -1.874,0.201 -2.948,-0.044 -1.075,-0.245 -1.732,-0.112 -2.19,0.098 0.346,0.379 1.093,0.197 1.754,0.442 0.662,0.244 2.007,0.506 2.479,0.334 0.724,-0.265 1.899,-0.007 2.476,-0.093 0.578,-0.085 0.745,0.246 0.335,0.907 -0.412,0.662 -1.075,-0.326 -1.075,-0.326 0,0 -0.301,1.056 -0.135,1.634 0.167,0.577 1.638,0.445 2.19,0.748 0.865,0.474 0.383,2.044 0.018,2.978 -0.363,0.927 -0.56,2.234 -0.888,3.06 -0.327,0.825 0.35,1.847 1.013,2.177 0.662,0.328 1.441,1.197 2.712,1.44 0.771,0.148 1.828,-0.433 2.43,-0.584 0.223,-0.057 0.368,0.028 0.405,0.193 l 10e-4,0.199 z"
           style="fill:#ece0c5;fill-opacity:1;fill-rule:nonzero;stroke:none"
           id="path19495" />
        <path
           inkscape:connector-curvature="0"
           d="m 467.262,106.487 c -0.626,-0.579 -1.649,-0.965 -2.146,-0.897 -0.495,0.085 0.332,-0.615 0.579,-1.029 0.245,-0.413 0.018,-0.875 0.471,-1.03 0.451,-0.151 0.3,0.959 0.943,1.481 0.268,0.22 0.48,0.434 0.702,0.608 0,0 -0.118,0.55 -0.549,0.867"
           style="fill:#010101;fill-opacity:1;fill-rule:nonzero;stroke:none"
           id="path19497" />
        <path
           inkscape:connector-curvature="0"
           d="m 462.763,107.799 c 0,0 -0.557,-0.084 -0.994,0.116 0.03,-0.073 -0.074,-0.154 -0.362,-0.277 -0.579,-0.246 -0.276,-0.513 0.137,-0.843 0.411,-0.333 1.315,-0.585 1.894,-0.422 -0.511,0.455 -1.006,1.179 -0.675,1.426"
           style="fill:#010101;fill-opacity:1;fill-rule:nonzero;stroke:none"
           id="path19499" />
        <path
           inkscape:connector-curvature="0"
           d="m 475.895,105.135 c -0.331,-0.081 -0.947,-0.301 -2.028,-0.347 -0.76,-0.031 -0.882,0.372 -1.048,-0.04 -0.167,-0.411 -0.417,-0.822 -0.286,-1.464 0.131,-0.64 0.551,-1.962 0.548,-2.539 -0.002,-0.58 -0.227,-1.902 0.101,-2.645 0.329,-0.745 0.658,-1.241 1.241,-0.003 0.289,0.619 0.565,1.619 0.796,2.019 0.23,0.402 0.783,1.031 0.783,1.031 0.662,0.741 0.665,1.566 0.834,2.556 0.168,0.991 -0.611,1.514 -0.941,1.432"
           style="fill:#ece0c5;fill-opacity:1;fill-rule:nonzero;stroke:none"
           id="path19501" />
        <path
           inkscape:connector-curvature="0"
           d="m 453.744,122.602 c 0.289,0.485 2.379,2.843 5.522,3.955 2.744,0.971 5.41,0.765 5.41,0.765 0.252,0.438 0.959,1.171 0.959,1.171 l -5.206,0.058 -4.534,-3.281 4.085,4.152 6.464,0.002 0.006,2.148 -6.513,0.006 -6.918,-7.544 -0.029,-1.467 c 0,0 0.528,0.194 0.754,0.035"
           style="fill:#d29f2a;fill-opacity:1;fill-rule:nonzero;stroke:none"
           id="path19503" />
        <path
           inkscape:connector-curvature="0"
           d="m 472.559,116.601 c -0.482,0.021 -1.802,-1.455 -2.395,-1.862 -0.611,-0.419 -0.807,-1.004 -1.513,-1.605 -0.707,-0.6 -1.648,-1.298 -1.648,-1.298 2.835,0.543 4.654,-1.674 4.654,-1.674 0,0 0.669,0.834 1.746,1.576 1.076,0.738 2.109,0.439 3.364,0.36 0,0 -0.877,0.915 -2.027,2.014 -0.802,0.768 -1.892,2.475 -2.181,2.489"
           style="fill:#d29f2a;fill-opacity:1;fill-rule:nonzero;stroke:none"
           id="path19505" />
        <path
           inkscape:connector-curvature="0"
           d="m 457.092,112.882 c 0,0 -0.202,1.01 1.939,2.305 0,0 0.082,-0.448 -0.286,-1.118 0,0 -0.151,-0.434 -0.003,-0.649 0.251,-0.365 0.698,-0.408 0.698,-0.408 0.771,0.022 1.158,-0.216 1.158,-0.216 -2.148,-1.283 -3.063,-0.702 -3.063,-0.702 -0.403,0.209 -0.986,-0.064 -0.986,-0.064 0,0 0.658,0.416 0.543,0.852 m 3.148,2.281 c 0,0 -0.344,1.247 2.246,3.087 0,0 0.144,-0.553 -0.263,-1.435 0,0 -0.174,-0.457 0.057,-0.799 0.286,-0.429 0.926,-0.451 0.926,-0.451 0.964,0.102 1.469,-0.157 1.469,-0.157 -2.601,-1.826 -3.808,-1.187 -3.808,-1.187 -0.507,0.305 -1.241,-0.188 -1.241,-0.188 0,0 0.621,0.571 0.614,1.13 m 3.018,2.258 c 0,0 -0.523,0.948 1.21,2.923 0,0 0.226,-0.424 0.067,-1.219 0,0 -0.037,-0.475 0.236,-0.659 0.282,-0.193 0.601,-0.233 0.82,-0.158 0.751,0.256 1.205,0.145 1.205,0.145 -1.744,-1.968 -2.845,-1.677 -2.845,-1.677 -0.472,0.152 -0.968,-0.385 -0.968,-0.385 -0.026,0.005 0.352,0.641 0.275,1.03 m 2.402,2.6 c 0,0 -0.525,0.775 0.82,2.596 0,0 0.227,-0.352 0.151,-1.05 0,0 0.026,-0.41 0.231,-0.543 0.203,-0.133 0.537,-0.168 0.733,-0.089 0.64,0.255 1.033,0.206 1.033,0.206 -1.351,-1.809 -2.322,-1.632 -2.322,-1.632 -0.417,0.101 -0.802,-0.395 -0.802,-0.395 0,0 0.393,0.612 0.156,0.907 m 3.764,5.094 c 0,0 -0.778,-3.763 -1.915,-3.169 -1.098,0.574 1.915,3.169 1.915,3.169 m 3.734,-2.555 c -0.769,-0.634 -1.88,2.56 -1.88,2.56 0,0 2.623,-1.947 1.88,-2.56 m 0.676,-0.871 c 0.104,0.16 0.07,0.57 0.07,0.57 -0.132,0.681 -0.041,1.06 -0.041,1.06 1.032,-1.626 0.814,-2.465 0.814,-2.465 -0.089,-0.324 0.207,-0.876 0.207,-0.876 0,0 -0.251,0.399 -0.53,0.285 0,0 -0.556,-0.306 -1.593,1.307 0,0 0.23,0.101 0.645,-0.067 0.127,-0.051 0.322,0.027 0.428,0.186 M 463.456,90.7 c -0.756,0.104 -3.901,3.112 -4.482,7.26 -0.601,4.307 0.501,5.723 0.501,5.723 0,0 -1.689,0.148 -2.421,1.022 -1.329,1.588 -1.23,4.977 -1.23,4.977 0,0 -0.354,-0.851 -1.11,-1.301 -0.65,-0.388 -1.312,-0.217 -1.312,-0.217 0.845,0.157 1.619,1.26 1.911,2.658 1.317,0.718 5.171,0.11 6.491,0.705 1.438,0.646 2.441,0.389 5.265,2.125 1.252,0.772 4.236,3.796 5.244,3.793 0.858,-0.003 2.015,-2.118 3.283,-3.26 1.905,-1.718 2.534,-1.632 3.035,-2.268 0.363,1.228 -0.105,3.061 -0.536,3.924 l -0.078,0.128 c -0.021,-0.01 -0.042,-0.025 -0.061,-0.047 0,0 -0.389,-0.415 -1.419,1.018 0,0 0.163,0.166 0.511,0.053 0,0 0.196,-0.01 0.282,0.235 l -0.017,0.082 c -0.242,0.439 -0.489,0.879 -0.727,1.314 l -0.086,0.116 c 0.016,-0.357 0.338,-0.882 0.323,-0.89 0,0 -0.374,0.421 -0.624,0.229 0,0 -0.594,-0.391 -1.92,1.166 0,0 0.246,0.152 0.724,0.012 0.138,-0.04 0.318,0.035 0.451,0.24 0.129,0.196 0.033,0.619 0.033,0.619 -0.134,0.424 -0.162,0.741 -0.163,0.924 l -0.005,0.063 c -1.215,2.353 -1.852,4.173 -2.799,5.525 -0.825,1.179 -2.102,2.986 -3.311,2.896 -0.637,-0.047 -2.728,-2.574 -3.674,-3.979 l -0.056,1.231 c -4.208,0.124 -11.013,-1.446 -12.826,-10.802 -0.121,-0.624 0.248,0.164 0.919,0.129 1.055,-0.055 1.492,-0.848 1.717,-1.452 1.587,0.788 5.181,3.944 6.495,5.398 0.723,0.803 2.88,3.524 3.486,4.427 -0.813,-2.311 -3.264,-5.346 -5.889,-8.048 -2.625,-2.703 -4.161,-3.393 -4.161,-3.393 0,0 -0.824,2.074 -1.804,1.884 -0.604,-0.117 -1.24,-0.246 -1.464,-1.198 -0.213,-0.914 -0.745,-1.965 0.087,-4.562 0,0 -0.262,-0.63 -0.316,-1.383 -0.052,-0.755 -0.879,-8.603 -2.934,-10.779 -0.875,-0.926 -2.397,-0.732 -2.397,-0.732 0,0 0.654,-0.532 1.574,-0.8 0,0 1.695,-0.562 2.451,-0.148 0.757,0.413 1.197,2.061 1.197,2.061 0.769,2.185 0.727,5.603 1.534,6.282 1.078,0.904 1.534,0.022 1.692,-1.958 0.135,-1.699 0.403,-2.815 0.476,-4.679 0,0 0.039,-2.113 0.914,-3.354 0.825,-1.172 1.62,-1.879 2.949,-2.376 1.33,-0.499 2.719,-1.06 4.277,-0.593"
           style="fill:#d29f2a;fill-opacity:1;fill-rule:nonzero;stroke:none"
           id="path19507" />
        <path
           inkscape:connector-curvature="0"
           d="m 487.396,105.259 c -0.582,0.002 -1.055,0.476 -1.052,1.06 0.002,0.583 0.476,1.054 1.058,1.052 0.583,-10e-4 1.055,-0.477 1.052,-1.059 -0.002,-0.584 -0.475,-1.054 -1.058,-1.053 m 0.281,-5.721 c 0,0 -0.299,0.224 -0.499,0.823 -10e-4,-0.001 -10e-4,-0.005 -0.002,-0.006 0,0 -0.364,0.803 -1.068,0.219 -0.448,-0.519 -0.84,-0.609 -0.84,-0.609 0.451,2.124 1.338,2.308 1.338,2.308 0.432,0.007 0.549,0.718 0.549,0.718 0,0 -0.113,-0.594 0.223,-0.802 0,0 0.738,-0.522 0.299,-2.651 m -1.095,-2.721 c 0,0 -0.266,0.261 -0.387,0.881 -10e-4,-0.003 -0.002,-0.004 -0.002,-0.006 0,0 -0.251,0.842 -1.029,0.357 -0.513,-0.455 -0.914,-0.492 -0.914,-0.492 0.728,2.046 1.63,2.11 1.63,2.11 0.432,-0.05 0.64,0.641 0.64,0.641 0,0 -0.188,-0.574 0.116,-0.824 0,0 0.662,-0.618 -0.054,-2.667 m -1.444,-2.555 c 0,0 -0.229,0.294 -0.267,0.924 -0.002,-0.002 -0.002,-0.003 -0.005,-0.005 0,0 -0.14,0.87 -0.973,0.49 -0.566,-0.384 -0.968,-0.368 -0.968,-0.368 0.99,1.933 1.894,1.877 1.894,1.877 0.419,-0.107 0.716,0.55 0.716,0.55 0,0 -0.26,-0.541 0.006,-0.832 0,0 0.578,-0.699 -0.403,-2.636 m -1.079,0.113 c 0,0 0.473,-0.771 -0.766,-2.554 0,0 -0.187,0.322 -0.137,0.952 -0.003,-10e-4 -0.003,-0.004 -0.006,-0.005 0,0 -0.017,0.88 -0.894,0.622 -0.616,-0.305 -1.012,-0.232 -1.012,-0.232 1.249,1.775 2.137,1.598 2.137,1.598 0.399,-0.165 0.786,0.444 0.786,0.444 0,0 -0.335,-0.501 -0.108,-0.825 m -1.821,-2.292 c 0,0 0.364,-0.83 -1.109,-2.425 0,0 -0.142,0.345 -0.005,0.962 -0.002,-0.001 -0.003,-0.004 -0.004,-0.005 0,0 0.103,0.874 -0.803,0.739 -0.648,-0.214 -1.033,-0.089 -1.033,-0.089 1.482,1.587 2.336,1.287 2.336,1.287 0.374,-0.217 0.84,0.332 0.84,0.332 0,0 -0.4,-0.45 -0.222,-0.801 m -2.118,-2.019 c 0,0 0.246,-0.872 -1.434,-2.249 0,0 -0.09,0.359 0.128,0.952 -0.001,-10e-4 -0.003,-0.002 -0.004,-0.003 0,0 0.224,0.851 -0.692,0.842 -0.674,-0.123 -1.035,0.053 -1.035,0.053 1.685,1.369 2.49,0.953 2.49,0.953 0.342,-0.268 0.88,0.215 0.88,0.215 0,0 -0.461,-0.392 -0.333,-0.763 m -2.376,-1.71 c 0,0 0.121,-0.898 -1.731,-2.03 0,0 -0.04,0.373 0.259,0.927 -10e-4,-0.001 -0.004,-0.001 -0.006,-0.003 0,0 0.339,0.813 -0.568,0.929 -0.685,-0.027 -1.018,0.2 -1.018,0.2 1.858,1.119 2.598,0.598 2.598,0.598 0.3,-0.312 0.9,0.09 0.9,0.09 0,0 -0.51,-0.323 -0.434,-0.711 m -2.59,-1.365 c 0,0 -0.002,-0.906 -1.994,-1.77 0,0 0.012,0.374 0.385,0.884 -0.003,-10e-4 -0.004,-0.002 -0.006,-0.002 0,0 0.449,0.757 -0.435,0.997 -0.682,0.067 -0.981,0.336 -0.981,0.336 1.996,0.854 2.656,0.234 2.656,0.234 0.254,-0.349 0.902,-0.032 0.902,-0.032 0,0 -0.548,-0.252 -0.527,-0.647 m -2.752,-0.991 c 0,0 -0.127,-0.898 -2.219,-1.479 0,0 0.061,0.364 0.502,0.819 -0.003,0 -0.005,0 -0.007,-10e-4 0,0 0.548,0.69 -0.293,1.05 -0.665,0.161 -0.926,0.468 -0.926,0.468 2.095,0.569 2.664,-0.133 2.664,-0.133 0.204,-0.383 0.891,-0.16 0.891,-0.16 0,0 -0.579,-0.173 -0.612,-0.564 m -2.864,-0.605 c 0,0 -0.25,-0.87 -2.401,-1.158 0,0 0.111,0.356 0.609,0.743 l -0.006,0 c 0,0 0.639,0.607 -0.145,1.082 -0.638,0.249 -0.851,0.589 -0.851,0.589 2.153,0.277 2.617,-0.501 2.617,-0.501 0.15,-0.406 0.86,-0.28 0.86,-0.28 0,0 -0.596,-0.092 -0.683,-0.475 m -6.071,-0.009 c 0,0 3.422,1.069 3.412,-0.033 -0.011,-1.137 -3.412,0.033 -3.412,0.033 m 20.749,29.766 c 0,0 0.4,-0.036 0.914,-0.492 0.774,-0.485 1.028,0.357 1.028,0.357 10e-4,-0.001 0.002,-0.002 0.002,-0.006 0.12,0.62 0.388,0.881 0.388,0.881 0.714,-2.049 0.053,-2.666 0.053,-2.666 -0.305,-0.25 -0.116,-0.822 -0.116,-0.822 0,0 -0.208,0.689 -0.637,0.638 0,0 -0.904,0.065 -1.632,2.11 m -1.381,2.348 c 0,0 0.401,0.02 0.973,-0.361 0.834,-0.373 0.967,0.497 0.967,0.497 0.002,-0.002 0.003,-0.005 0.004,-0.006 0.035,0.631 0.262,0.926 0.262,0.926 0.992,-1.932 0.422,-2.633 0.422,-2.633 -0.268,-0.291 -0.003,-0.833 -0.003,-0.833 0,0 -0.302,0.655 -0.72,0.546 0,0 -0.901,-0.061 -1.905,1.864 m -1.693,2.135 c 0,0 0.395,0.074 1.012,-0.223 0.879,-0.255 0.893,0.625 0.893,0.625 0,-10e-4 0.002,-0.003 0.004,-0.006 -0.054,0.631 0.132,0.954 0.132,0.954 1.248,-1.776 0.779,-2.549 0.779,-2.549 -0.225,-0.325 0.113,-0.825 0.113,-0.825 0,0 -0.388,0.607 -0.788,0.441 0,0 -0.886,-0.185 -2.145,1.583 m -1.973,1.883 c 0,0 0.382,0.126 1.034,-0.084 0.906,-0.13 0.798,0.743 0.798,0.743 0.001,-10e-4 0.003,-0.002 0.004,-0.003 -0.138,0.616 -10e-4,0.961 -10e-4,0.961 1.482,-1.586 1.126,-2.418 1.126,-2.418 -0.176,-0.352 0.225,-0.8 0.225,-0.8 0,0 -0.468,0.547 -0.841,0.329 0,0 -0.853,-0.306 -2.345,1.272 m -1.992,3.092 c 0,0 3.392,-1.193 2.694,-2.091 -0.673,-0.869 -2.694,2.091 -2.694,2.091 m 9.988,-12.377 c 0,-0.002 10e-4,-0.003 0.002,-0.004 0.204,0.596 0.505,0.817 0.505,0.817 0.425,-2.128 -0.316,-2.648 -0.316,-2.648 -0.336,-0.207 -0.228,-0.8 -0.228,-0.8 0,0 -0.11,0.714 -0.543,0.724 0,0 -0.886,0.187 -1.324,2.314 0,0 0.391,-0.092 0.836,-0.615 0.703,-0.587 1.068,0.212 1.068,0.212 m -14.855,16.701 c 0.461,-0.539 0.866,-1.114 1.209,-1.605 0.643,-0.917 1.135,-1.983 1.705,-3.216 0.261,-0.567 0.552,-1.195 0.883,-1.863 5.348,-3.308 8.891,-9.159 8.868,-15.816 -0.034,-10.28 -8.566,-18.585 -19.053,-18.549 -0.372,0.001 -0.421,0.014 -0.788,0.038 -0.872,0.118 -3.239,-1.074 -4.149,-2.008 -0.496,-0.507 -0.793,-0.933 -0.054,-1.774 1.377,-0.94 4.176,-0.91 5.013,-0.913 13.109,-0.045 23.772,10.336 23.815,23.186 0.038,10.745 -7.362,19.809 -17.449,22.52"
           style="fill:#d29f2a;fill-opacity:1;fill-rule:nonzero;stroke:none"
           id="path19509" />
        <path
           inkscape:connector-curvature="0"
           d="m 464.324,90.019 c -0.416,-0.374 -0.838,-0.589 -1.366,-0.679 0,0 1.008,-0.409 1.543,-0.894 0.792,0.049 1.565,-0.075 2.093,0.128 0.776,0.647 -0.974,0.613 -2.27,1.445"
           style="fill:#ece0c5;fill-opacity:1;fill-rule:nonzero;stroke:none"
           id="path19511" />
        <path
           inkscape:connector-curvature="0"
           d="m 475.108,105.773 c -0.343,-0.169 -1.074,-0.242 -1.486,-0.241 -0.414,0.001 -1.229,0.152 -1.41,0.417 0.072,0.252 0.422,0.523 0.843,0.75 0,0 0.692,0.375 1.646,0.397 0.412,-0.001 1.071,-0.107 1.162,-0.137 0.09,-0.224 -0.41,-1.013 -0.755,-1.186 m 2.596,2.911 c -0.037,-0.165 -0.182,-0.25 -0.405,-0.193 -0.602,0.151 -1.659,0.732 -2.43,0.584 -1.271,-0.243 -2.05,-1.112 -2.712,-1.44 -0.663,-0.33 -1.34,-1.352 -1.013,-2.177 0.328,-0.826 0.525,-2.133 0.888,-3.06 0.365,-0.934 0.847,-2.504 -0.018,-2.978 -0.552,-0.303 -2.023,-0.171 -2.19,-0.748 -0.166,-0.578 0.135,-1.634 0.135,-1.634 0,0 0.663,0.988 1.075,0.326 0.41,-0.661 0.243,-0.992 -0.335,-0.907 -0.577,0.086 -1.752,-0.172 -2.476,0.093 -0.472,0.172 -1.817,-0.09 -2.479,-0.334 -0.661,-0.245 -1.408,-0.063 -1.754,-0.442 0.458,-0.21 1.115,-0.343 2.19,-0.098 1.074,0.245 2.289,0.212 2.948,0.044 0.659,-0.167 1.743,0.032 2.07,-0.382 0.331,-0.414 0.319,-1.194 -0.258,-1.193 -0.579,0.002 -1.878,-0.041 -2.794,0.063 -1.279,0.145 -2.745,-1.695 -2.745,-1.695 0,0 1.071,-0.335 2.31,-0.34 1.239,-0.004 2.066,0.16 2.893,0.321 0.826,0.163 1.148,-1.394 0.464,-2.121 1.192,0.143 1.973,2.176 1.917,3.274 -0.047,0.894 0.311,1.83 0.434,2.317 0.097,0.377 0.4,0.714 0.675,1.266 0.095,0.182 0.037,0.247 0.329,0.867 -0.583,-1.238 -0.912,-0.742 -1.241,0.003 -0.328,0.743 -0.103,2.065 -0.101,2.645 0.003,0.577 -0.417,1.899 -0.548,2.539 -0.131,0.642 0.119,1.053 0.286,1.464 0.166,0.412 0.288,0.009 1.048,0.04 1.081,0.046 1.697,0.266 2.028,0.347 0.33,0.082 1.109,-0.441 0.941,-1.432 -0.169,-0.99 -0.172,-1.815 -0.834,-2.556 0,0 -0.553,-0.629 -0.783,-1.031 0.23,0.402 0.902,0.841 0.902,0.841 0.664,0.743 0.816,1.082 0.983,2.072 0.069,0.406 0.152,1.406 -0.054,1.645 -0.358,0.416 0.029,1.94 0.251,2.32 0.388,0.663 0.402,1.073 0.403,1.69"
           style="fill:#010101;fill-opacity:1;fill-rule:nonzero;stroke:none"
           id="path19513" />
        <path
           inkscape:connector-curvature="0"
           d="m 464.577,107.8 c 0,0 0.743,-0.079 1.518,-0.504 0,0 0.982,-0.381 1.167,-0.809 0.431,-0.317 0.549,-0.867 0.549,-0.867 0.239,0.117 0.419,0.443 1.253,0.384 1.216,-0.085 0.928,0.86 0.517,1.275 -0.41,0.416 -2.639,1.085 -4.123,1.502 -1.487,0.417 -4.459,0.592 -4.459,0.592 0,0 -0.66,0.003 -0.745,-0.41 -0.083,-0.412 0.577,-0.661 1.072,-0.829 0.246,-0.082 0.37,-0.184 0.443,-0.219 0.437,-0.2 0.994,-0.116 0.994,-0.116 0.332,0.246 1.814,10e-4 1.814,10e-4"
           style="fill:#010101;fill-opacity:1;fill-rule:nonzero;stroke:none"
           id="path19515" />
        <path
           inkscape:connector-curvature="0"
           d="m 468.23,100.519 c -0.579,-0.328 -0.25,-0.741 0.244,-0.827 0.495,-0.083 0.661,-0.003 1.32,-0.335 0.66,-0.333 0.25,0.341 -0.079,0.754 -0.329,0.417 -0.906,0.737 -1.485,0.408"
           style="fill:#010101;fill-opacity:1;fill-rule:nonzero;stroke:none"
           id="path19517" />
        <path
           inkscape:connector-curvature="0"
           d="m 483.747,106.109 c -0.753,-0.547 -1.51,-1.413 -2.158,-2.791 -0.861,-1.831 -0.748,-3.949 -0.748,-3.949 0,0 -2.025,0.023 -4.197,-1.621 -0.767,-0.58 -1.967,-1.984 -2.3,-4.101 0.39,0.969 2.025,3.951 5.107,4.301 0.614,0.068 1.302,0.062 1.996,-0.029 0.247,0.428 0.479,0.864 0.688,1.31 -0.328,1.188 -0.05,3.138 1.415,4.62 0.117,0.742 0.179,1.498 0.197,2.26"
           style="fill:#e11d3a;fill-opacity:1;fill-rule:nonzero;stroke:none"
           id="path19519" />
        <path
           inkscape:connector-curvature="0"
           d="m 467.174,141.571 c -0.935,0.732 -5.905,0.714 -7.144,-0.003 -0.605,-0.349 -0.676,-2.82 -0.33,-4.984 -1.044,1.628 -1.211,4.122 -0.802,4.702 -3.117,0.765 -6.231,-5.156 -6.994,-14.893 0.551,-0.688 1.227,-1.149 1.227,-1.149 l 6.75,7.555 6.056,-0.009 c 0,0 1.953,8.219 1.237,8.781"
           style="fill:#e11d3a;fill-opacity:1;fill-rule:nonzero;stroke:none"
           id="path19521" />
        <g
           id="g19523">
          <g
             id="g19525"
             clip-path="url(#clipPath19527)">
            <path
               inkscape:connector-curvature="0"
               d="m 455.06,90.644 c -2.894,-1.025 -3.593,1.416 -3.808,3.585 -0.519,-1.335 -0.626,-6.013 3.396,-5.211 2.923,0.581 3.771,0.505 4.94,-0.905 -1.348,-1.035 -2.127,-1.891 -1.739,-3.644 -2.689,-1.462 -7.078,-1.162 -9.829,2.13 -3.902,4.675 -0.075,12.769 -4.83,14.659 0.303,1.773 1.424,3.456 2.333,4.18 2.642,2.114 5.083,1.416 5.083,1.416 0.053,0.651 0.1,0.738 0.201,1.229 -4.961,0.275 -7.822,-2.725 -8.596,-6.339 -0.095,-0.447 -0.095,-0.557 -0.184,-1.234 3.057,-0.645 2.671,-5.356 2.871,-8.206 0.191,-2.741 0.875,-6.459 3.52,-8.22 2.729,-1.819 7.424,-2.872 11.092,-0.519 -2.072,3.125 2.815,4.882 2.815,4.882 -2.081,2.524 -4.575,3.146 -7.265,2.197"
               style="fill:#e11d3a;fill-opacity:1;fill-rule:nonzero;stroke:none"
               id="path19531" />
            <path
               inkscape:connector-curvature="0"
               d="m 465.944,83.226 c -0.837,0.003 -3.636,-0.027 -5.013,0.913 -0.739,0.841 -0.442,1.267 0.054,1.774 0.91,0.934 3.277,2.126 4.149,2.008 0.367,-0.024 0.416,-0.037 0.788,-0.038 10.487,-0.036 19.019,8.269 19.053,18.549 0.023,6.657 -3.52,12.508 -8.868,15.816 -0.331,0.668 -0.622,1.296 -0.883,1.863 -0.57,1.233 -1.062,2.299 -1.705,3.216 -0.343,0.491 -0.748,1.066 -1.209,1.605 10.087,-2.711 17.487,-11.775 17.449,-22.52 -0.043,-12.85 -10.706,-23.231 -23.815,-23.186 m -6.434,0.339 c -3.668,-2.353 -8.363,-1.3 -11.092,0.519 -2.645,1.761 -3.329,5.479 -3.52,8.22 -0.2,2.85 0.186,7.561 -2.871,8.206 0.089,0.677 0.089,0.787 0.184,1.234 0.774,3.614 3.635,6.614 8.596,6.339 -0.101,-0.491 -0.148,-0.578 -0.201,-1.229 0,0 -2.441,0.698 -5.083,-1.416 -0.909,-0.724 -2.03,-2.407 -2.333,-4.18 4.755,-1.89 0.928,-9.984 4.83,-14.659 2.751,-3.292 7.14,-3.592 9.829,-2.13 -0.388,1.753 0.391,2.609 1.739,3.644 -1.169,1.41 -2.017,1.486 -4.94,0.905 -4.022,-0.802 -3.915,3.876 -3.396,5.211 0.215,-2.169 0.914,-4.61 3.808,-3.585 2.69,0.949 5.184,0.327 7.265,-2.197 0,0 -4.887,-1.757 -2.815,-4.882 m 7.493,28.271 c 0,0 0.941,0.698 1.648,1.298 0.706,0.601 0.902,1.186 1.513,1.605 0.593,0.407 1.913,1.883 2.395,1.862 0.289,-0.014 1.379,-1.721 2.181,-2.489 1.15,-1.099 2.027,-2.014 2.027,-2.014 -1.255,0.079 -2.288,0.378 -3.364,-0.36 -1.077,-0.742 -1.746,-1.576 -1.746,-1.576 0,0 -1.819,2.217 -4.654,1.674 m -0.409,-23.262 c -0.528,-0.203 -1.301,-0.079 -2.093,-0.128 -0.535,0.485 -1.543,0.894 -1.543,0.894 0.528,0.09 0.95,0.305 1.366,0.679 1.296,-0.832 3.046,-0.798 2.27,-1.445 m 6.391,5.073 c 0.056,-1.098 -0.725,-3.131 -1.917,-3.274 -1.079,-0.099 -2.759,-0.342 -4.573,-0.031 -2.059,0.353 -2.521,1.688 -3.836,3.26 -1.317,1.572 -1.139,3.607 -1.216,5.587 -0.074,1.984 -1.46,1.661 -1.958,1.822 0,0 0.013,0.858 0.187,1.36 0.252,0.719 0.926,2.123 0.926,2.123 0,0 -0.678,0.016 -1.245,0.096 -0.56,0.08 -1.287,0.361 -1.341,0.96 -0.077,0.825 -0.837,0.992 -0.592,1.882 0.261,0.955 0.739,1.48 1.276,1.932 1.348,1.131 3.607,1.154 3.607,1.154 0,0 1.043,-0.189 1.904,-0.364 0,0 0.588,-0.36 1.84,-0.162 0.338,0.052 1.356,0.179 1.356,0.179 0,0 2.074,-0.026 2.646,-0.548 0.572,-0.516 1.358,-1.192 1.358,-1.192 0,0 0.599,1.41 1.46,1.923 0,0 1.717,1.403 3.036,0.998 0.935,-0.29 1.767,-1.743 1.802,-2.469 l -10e-4,-0.199 c -0.001,-0.617 -0.015,-1.027 -0.403,-1.69 -0.222,-0.38 -0.609,-1.904 -0.251,-2.32 0.206,-0.239 0.123,-1.239 0.054,-1.645 -0.167,-0.99 -0.319,-1.329 -0.983,-2.072 0,0 -0.672,-0.439 -0.902,-0.841 -0.231,-0.4 -0.507,-1.4 -0.796,-2.019 -0.292,-0.62 -0.234,-0.685 -0.329,-0.867 -0.275,-0.552 -0.578,-0.889 -0.675,-1.266 -0.123,-0.487 -0.481,-1.423 -0.434,-2.317 m 8.604,9.671 c 0.648,1.378 1.405,2.244 2.158,2.791 -0.018,-0.762 -0.08,-1.518 -0.197,-2.26 -1.465,-1.482 -1.743,-3.432 -1.415,-4.62 -0.209,-0.446 -0.441,-0.882 -0.688,-1.31 -0.694,0.091 -1.382,0.097 -1.996,0.029 -3.082,-0.35 -4.717,-3.332 -5.107,-4.301 0.333,2.117 1.533,3.521 2.3,4.101 2.172,1.644 4.197,1.621 4.197,1.621 0,0 -0.113,2.118 0.748,3.949 m -29.866,4.458 c 0.054,0.753 0.316,1.383 0.316,1.383 -0.832,2.597 -0.3,3.648 -0.087,4.562 0.224,0.952 0.86,1.081 1.464,1.198 0.98,0.19 1.804,-1.884 1.804,-1.884 0,0 1.536,0.69 4.161,3.393 2.625,2.702 5.076,5.737 5.889,8.048 -0.606,-0.903 -2.763,-3.624 -3.486,-4.427 -1.314,-1.454 -4.908,-4.61 -6.495,-5.398 -0.225,0.604 -0.662,1.397 -1.717,1.452 -0.671,0.035 -1.04,-0.753 -0.919,-0.129 1.813,9.356 8.618,10.926 12.826,10.802 l 0.056,-1.231 c 0.946,1.405 3.037,3.932 3.674,3.979 1.209,0.09 2.486,-1.717 3.311,-2.896 0.947,-1.352 1.584,-3.172 2.799,-5.525 l 0.005,-0.063 c 10e-4,-0.183 0.029,-0.5 0.163,-0.924 0,0 0.096,-0.423 -0.033,-0.619 -0.133,-0.205 -0.313,-0.28 -0.451,-0.24 -0.478,0.14 -0.724,-0.012 -0.724,-0.012 1.326,-1.557 1.92,-1.166 1.92,-1.166 0.25,0.192 0.624,-0.229 0.624,-0.229 0.015,0.008 -0.307,0.533 -0.323,0.89 l 0.086,-0.116 c 0.238,-0.435 0.485,-0.875 0.727,-1.314 l 0.017,-0.082 c -0.086,-0.245 -0.282,-0.235 -0.282,-0.235 -0.348,0.113 -0.511,-0.053 -0.511,-0.053 1.03,-1.433 1.419,-1.018 1.419,-1.018 0.019,0.022 0.04,0.037 0.061,0.047 l 0.078,-0.128 c 0.431,-0.863 0.899,-2.696 0.536,-3.924 -0.501,0.636 -1.13,0.55 -3.035,2.268 -1.268,1.142 -2.425,3.257 -3.283,3.26 -1.008,0.003 -3.992,-3.021 -5.244,-3.793 -2.824,-1.736 -3.827,-1.479 -5.265,-2.125 -1.32,-0.595 -5.174,0.013 -6.491,-0.705 -0.292,-1.398 -1.066,-2.501 -1.911,-2.658 0,0 0.662,-0.171 1.312,0.217 0.756,0.45 1.11,1.301 1.11,1.301 0,0 -0.099,-3.389 1.23,-4.977 0.732,-0.874 2.421,-1.022 2.421,-1.022 0,0 -1.102,-1.416 -0.501,-5.723 0.581,-4.148 3.726,-7.156 4.482,-7.26 -1.558,-0.467 -2.947,0.094 -4.277,0.593 -1.329,0.497 -2.124,1.204 -2.949,2.376 -0.875,1.241 -0.914,3.354 -0.914,3.354 -0.073,1.864 -0.341,2.98 -0.476,4.679 -0.158,1.98 -0.614,2.862 -1.692,1.958 -0.807,-0.679 -0.765,-4.097 -1.534,-6.282 0,0 -0.44,-1.648 -1.197,-2.061 -0.756,-0.414 -2.451,0.148 -2.451,0.148 -0.92,0.268 -1.574,0.8 -1.574,0.8 0,0 1.522,-0.194 2.397,0.732 2.055,2.176 2.882,10.024 2.934,10.779 m 1.267,14.791 0.029,1.467 6.918,7.544 6.513,-0.006 -0.006,-2.148 -6.464,-0.002 -4.085,-4.152 4.534,3.281 5.206,-0.058 c 0,0 -0.707,-0.733 -0.959,-1.171 0,0 -2.666,0.206 -5.41,-0.765 -3.143,-1.112 -5.233,-3.47 -5.522,-3.955 -0.226,0.159 -0.754,-0.035 -0.754,-0.035 m -1.086,3.826 c 0.763,9.737 3.877,15.658 6.994,14.893 -0.409,-0.58 -0.242,-3.074 0.802,-4.702 -0.346,2.164 -0.275,4.635 0.33,4.984 1.239,0.717 6.209,0.735 7.144,0.003 0.716,-0.562 -1.237,-8.781 -1.237,-8.781 l -6.056,0.009 -6.75,-7.555 c 0,0 -0.676,0.461 -1.227,1.149 m 39.075,-19.985 c 0.039,11.041 -7.507,20.787 -18.353,23.703 0,0 -2.317,0.697 -3.467,0.63 -0.702,-0.041 -1.36,-0.626 -1.991,-1.25 l 0.004,2.792 -0.488,0.001 c 0,0 0.708,2.648 1.081,4.635 0.872,4.661 0.327,5.097 -0.026,5.372 -1.312,1.027 -6.689,0.925 -8.167,0.07 -0.105,-0.06 -0.197,-0.139 -0.283,-0.229 l -0.175,0.042 c -0.967,0.239 -1.962,0.015 -2.877,-0.646 -2.02,-1.46 -3.627,-4.983 -4.553,-9.8 -0.078,-0.365 -0.156,-0.817 -0.233,-1.317 -0.177,-1.475 -0.381,-3.25 -0.434,-4.284 l 1.084,-1.142 -0.011,-3.2 1.179,-0.054 c 0,0 -0.844,-1.772 -1.044,-2.61 -0.199,-0.836 -0.6,-2.462 -0.75,-3.3 0,0 -1.038,-0.736 -1.146,-3.201 -0.081,-1.872 0.189,-2.662 0.532,-3.402 0,0 -3.865,0.419 -6.664,-2.047 -3.079,-2.712 -3.175,-5.954 -2.935,-7.681 2.919,-0.417 2.288,-4.988 2.522,-8.586 0.205,-3.156 1.341,-6.303 4.704,-8.335 4.978,-3.012 11.584,-0.634 12.425,0.25 0,0 0.404,-0.456 2.801,-0.69 0.72,-0.062 1.46,-0.122 2.225,-0.123 13.761,-0.049 24.993,10.899 25.04,24.402"
               style="fill:#010101;fill-opacity:1;fill-rule:nonzero;stroke:none"
               id="path19533" />
          </g>
        </g>
        <path
           inkscape:connector-curvature="0"
           d="m 457.535,112.094 c 0,0 0.915,-0.581 3.063,0.702 0,0 -0.387,0.238 -1.158,0.216 0,0 -0.447,0.043 -0.698,0.408 -0.148,0.215 0.003,0.649 0.003,0.649 0.368,0.67 0.286,1.118 0.286,1.118 -2.141,-1.295 -1.939,-2.305 -1.939,-2.305 0.115,-0.436 -0.543,-0.852 -0.543,-0.852 0,0 0.583,0.273 0.986,0.064"
           style="fill:#010101;fill-opacity:1;fill-rule:nonzero;stroke:none"
           id="path19535" />
        <path
           inkscape:connector-curvature="0"
           d="m 462.983,116.391 c 0,0 0.496,0.537 0.968,0.385 0,0 1.101,-0.291 2.845,1.677 0,0 -0.454,0.111 -1.205,-0.145 -0.219,-0.075 -0.538,-0.035 -0.82,0.158 -0.273,0.184 -0.236,0.659 -0.236,0.659 0.159,0.795 -0.067,1.219 -0.067,1.219 -1.733,-1.975 -1.21,-2.923 -1.21,-2.923 0.077,-0.389 -0.301,-1.025 -0.275,-1.03"
           style="fill:#010101;fill-opacity:1;fill-rule:nonzero;stroke:none"
           id="path19537" />
        <path
           inkscape:connector-curvature="0"
           d="m 472.761,121.57 c 1.037,-1.613 1.593,-1.307 1.593,-1.307 0.279,0.114 0.53,-0.285 0.53,-0.285 0,0 -0.296,0.552 -0.207,0.876 0,0 0.218,0.839 -0.814,2.465 0,0 -0.091,-0.379 0.041,-1.06 0,0 0.034,-0.41 -0.07,-0.57 -0.106,-0.159 -0.301,-0.237 -0.428,-0.186 -0.415,0.168 -0.645,0.067 -0.645,0.067"
           style="fill:#010101;fill-opacity:1;fill-rule:nonzero;stroke:none"
           id="path19539" />
        <path
           inkscape:connector-curvature="0"
           d="m 467.509,121.946 c 1.137,-0.594 1.915,3.169 1.915,3.169 0,0 -3.013,-2.595 -1.915,-3.169"
           style="fill:#010101;fill-opacity:1;fill-rule:nonzero;stroke:none"
           id="path19541" />
        <path
           inkscape:connector-curvature="0"
           d="m 466.306,119.509 c 0,0 0.971,-0.177 2.322,1.632 0,0 -0.393,0.049 -1.033,-0.206 -0.196,-0.079 -0.53,-0.044 -0.733,0.089 -0.205,0.133 -0.231,0.543 -0.231,0.543 0.076,0.698 -0.151,1.05 -0.151,1.05 -1.345,-1.821 -0.82,-2.596 -0.82,-2.596 0.237,-0.295 -0.156,-0.907 -0.156,-0.907 0,0 0.385,0.496 0.802,0.395"
           style="fill:#010101;fill-opacity:1;fill-rule:nonzero;stroke:none"
           id="path19543" />
        <path
           inkscape:connector-curvature="0"
           d="m 460.867,114.221 c 0,0 1.207,-0.639 3.808,1.187 0,0 -0.505,0.259 -1.469,0.157 0,0 -0.64,0.022 -0.926,0.451 -0.231,0.342 -0.057,0.799 -0.057,0.799 0.407,0.882 0.263,1.435 0.263,1.435 -2.59,-1.84 -2.246,-3.087 -2.246,-3.087 0.007,-0.559 -0.614,-1.13 -0.614,-1.13 0,0 0.734,0.493 1.241,0.188"
           style="fill:#010101;fill-opacity:1;fill-rule:nonzero;stroke:none"
           id="path19545" />
        <path
           inkscape:connector-curvature="0"
           d="m 473.158,122.56 c 0.743,0.613 -1.88,2.56 -1.88,2.56 0,0 1.111,-3.194 1.88,-2.56"
           style="fill:#010101;fill-opacity:1;fill-rule:nonzero;stroke:none"
           id="path19547" />
        <path
           inkscape:connector-curvature="0"
           d="m 479.871,122.517 c 0.698,0.898 -2.694,2.091 -2.694,2.091 0,0 2.021,-2.96 2.694,-2.091"
           style="fill:#010101;fill-opacity:1;fill-rule:nonzero;stroke:none"
           id="path19549" />
        <path
           inkscape:connector-curvature="0"
           d="m 486.097,112.019 c -0.445,0.523 -0.836,0.615 -0.836,0.615 0.438,-2.127 1.324,-2.314 1.324,-2.314 0.433,-0.01 0.543,-0.724 0.543,-0.724 0,0 -0.108,0.593 0.228,0.8 0,0 0.741,0.52 0.316,2.648 0,0 -0.301,-0.221 -0.505,-0.817 -10e-4,10e-4 -0.002,0.002 -0.002,0.004 0,0 -0.365,-0.799 -1.068,-0.212"
           style="fill:#010101;fill-opacity:1;fill-rule:nonzero;stroke:none"
           id="path19551" />
        <path
           inkscape:connector-curvature="0"
           d="m 483.287,118.05 c 0.4,0.166 0.788,-0.441 0.788,-0.441 0,0 -0.338,0.5 -0.113,0.825 0,0 0.469,0.773 -0.779,2.549 0,0 -0.186,-0.323 -0.132,-0.954 -0.002,0.003 -0.004,0.005 -0.004,0.006 0,0 -0.014,-0.88 -0.893,-0.625 -0.617,0.297 -1.012,0.223 -1.012,0.223 1.259,-1.768 2.145,-1.583 2.145,-1.583"
           style="fill:#010101;fill-opacity:1;fill-rule:nonzero;stroke:none"
           id="path19553" />
        <path
           inkscape:connector-curvature="0"
           d="m 481.514,120.244 c 0.373,0.218 0.841,-0.329 0.841,-0.329 0,0 -0.401,0.448 -0.225,0.8 0,0 0.356,0.832 -1.126,2.418 0,0 -0.137,-0.345 10e-4,-0.961 -10e-4,0.001 -0.003,0.002 -0.004,0.003 0,0 0.108,-0.873 -0.798,-0.743 -0.652,0.21 -1.034,0.084 -1.034,0.084 1.492,-1.578 2.345,-1.272 2.345,-1.272"
           style="fill:#010101;fill-opacity:1;fill-rule:nonzero;stroke:none"
           id="path19555" />
        <path
           inkscape:connector-curvature="0"
           d="m 484.74,115.634 c 0.418,0.109 0.72,-0.546 0.72,-0.546 0,0 -0.265,0.542 0.003,0.833 0,0 0.57,0.701 -0.422,2.633 0,0 -0.227,-0.295 -0.262,-0.926 -10e-4,0.001 -0.002,0.004 -0.004,0.006 0,0 -0.133,-0.87 -0.967,-0.497 -0.572,0.381 -0.973,0.361 -0.973,0.361 1.004,-1.925 1.905,-1.864 1.905,-1.864"
           style="fill:#010101;fill-opacity:1;fill-rule:nonzero;stroke:none"
           id="path19557" />
        <path
           inkscape:connector-curvature="0"
           d="m 481.62,92.552 c 0,0 -0.854,0.3 -2.336,-1.287 0,0 0.385,-0.125 1.033,0.089 0.906,0.135 0.803,-0.739 0.803,-0.739 10e-4,0.001 0.002,0.004 0.004,0.005 -0.137,-0.617 0.005,-0.962 0.005,-0.962 1.473,1.595 1.109,2.425 1.109,2.425 -0.178,0.351 0.222,0.801 0.222,0.801 0,0 -0.466,-0.549 -0.84,-0.332"
           style="fill:#010101;fill-opacity:1;fill-rule:nonzero;stroke:none"
           id="path19559" />
        <path
           inkscape:connector-curvature="0"
           d="m 483.381,94.756 c 0,0 -0.888,0.177 -2.137,-1.598 0,0 0.396,-0.073 1.012,0.232 0.877,0.258 0.894,-0.622 0.894,-0.622 0.003,0.001 0.003,0.004 0.006,0.005 -0.05,-0.63 0.137,-0.952 0.137,-0.952 1.239,1.783 0.766,2.554 0.766,2.554 -0.227,0.324 0.108,0.825 0.108,0.825 0,0 -0.387,-0.609 -0.786,-0.444"
           style="fill:#010101;fill-opacity:1;fill-rule:nonzero;stroke:none"
           id="path19561" />
        <path
           inkscape:connector-curvature="0"
           d="m 485.535,97.73 c 0,0 -0.297,-0.657 -0.716,-0.55 0,0 -0.904,0.056 -1.894,-1.877 0,0 0.402,-0.016 0.968,0.368 0.833,0.38 0.973,-0.49 0.973,-0.49 0.003,0.002 0.003,0.003 0.005,0.005 0.038,-0.63 0.267,-0.924 0.267,-0.924 0.981,1.937 0.403,2.636 0.403,2.636 -0.266,0.291 -0.006,0.832 -0.006,0.832"
           style="fill:#010101;fill-opacity:1;fill-rule:nonzero;stroke:none"
           id="path19563" />
        <path
           inkscape:connector-curvature="0"
           d="m 485.848,113.04 c 0.429,0.051 0.637,-0.638 0.637,-0.638 0,0 -0.189,0.572 0.116,0.822 0,0 0.661,0.617 -0.053,2.666 0,0 -0.268,-0.261 -0.388,-0.881 0,0.004 -0.001,0.005 -0.002,0.006 0,0 -0.254,-0.842 -1.028,-0.357 -0.514,0.456 -0.914,0.492 -0.914,0.492 0.728,-2.045 1.632,-2.11 1.632,-2.11"
           style="fill:#010101;fill-opacity:1;fill-rule:nonzero;stroke:none"
           id="path19565" />
        <path
           inkscape:connector-curvature="0"
           d="m 486.636,99.484 c -0.304,0.25 -0.116,0.824 -0.116,0.824 0,0 -0.208,-0.691 -0.64,-0.641 0,0 -0.902,-0.064 -1.63,-2.11 0,0 0.401,0.037 0.914,0.492 0.778,0.485 1.029,-0.357 1.029,-0.357 0,0.002 0.001,0.003 0.002,0.006 0.121,-0.62 0.387,-0.881 0.387,-0.881 0.716,2.049 0.054,2.667 0.054,2.667"
           style="fill:#010101;fill-opacity:1;fill-rule:nonzero;stroke:none"
           id="path19567" />
        <path
           inkscape:connector-curvature="0"
           d="m 487.402,107.371 c -0.582,0.002 -1.056,-0.469 -1.058,-1.052 -0.003,-0.584 0.47,-1.058 1.052,-1.06 0.583,-0.001 1.056,0.469 1.058,1.053 0.003,0.582 -0.469,1.058 -1.052,1.059"
           style="fill:#010101;fill-opacity:1;fill-rule:nonzero;stroke:none"
           id="path19569" />
        <path
           inkscape:connector-curvature="0"
           d="m 477.278,88.975 c 0,0 -0.74,0.521 -2.598,-0.598 0,0 0.333,-0.227 1.018,-0.2 0.907,-0.116 0.568,-0.929 0.568,-0.929 0.002,0.002 0.005,0.002 0.006,0.003 -0.299,-0.554 -0.259,-0.927 -0.259,-0.927 1.852,1.132 1.731,2.03 1.731,2.03 -0.076,0.388 0.434,0.711 0.434,0.711 0,0 -0.6,-0.402 -0.9,-0.09"
           style="fill:#010101;fill-opacity:1;fill-rule:nonzero;stroke:none"
           id="path19571" />
        <path
           inkscape:connector-curvature="0"
           d="m 487.378,102.189 c -0.336,0.208 -0.223,0.802 -0.223,0.802 0,0 -0.117,-0.711 -0.549,-0.718 0,0 -0.887,-0.184 -1.338,-2.308 0,0 0.392,0.09 0.84,0.609 0.704,0.584 1.068,-0.219 1.068,-0.219 0.001,10e-4 0.001,0.005 0.002,0.006 0.2,-0.599 0.499,-0.823 0.499,-0.823 0.439,2.129 -0.299,2.651 -0.299,2.651"
           style="fill:#010101;fill-opacity:1;fill-rule:nonzero;stroke:none"
           id="path19573" />
        <path
           inkscape:connector-curvature="0"
           d="m 479.573,90.612 c 0,0 -0.805,0.416 -2.49,-0.953 0,0 0.361,-0.176 1.035,-0.053 0.916,0.009 0.692,-0.842 0.692,-0.842 10e-4,0.001 0.003,0.002 0.004,0.003 -0.218,-0.593 -0.128,-0.952 -0.128,-0.952 1.68,1.377 1.434,2.249 1.434,2.249 -0.128,0.371 0.333,0.763 0.333,0.763 0,0 -0.538,-0.483 -0.88,-0.215"
           style="fill:#010101;fill-opacity:1;fill-rule:nonzero;stroke:none"
           id="path19575" />
        <path
           inkscape:connector-curvature="0"
           d="m 463.467,85.384 c 0,0 3.401,-1.17 3.412,-0.033 0.01,1.102 -3.412,0.033 -3.412,0.033"
           style="fill:#010101;fill-opacity:1;fill-rule:nonzero;stroke:none"
           id="path19577" />
        <path
           inkscape:connector-curvature="0"
           d="m 472.123,86.722 c 0,0 -0.569,0.702 -2.664,0.133 0,0 0.261,-0.307 0.926,-0.468 0.841,-0.36 0.293,-1.05 0.293,-1.05 0.002,10e-4 0.004,10e-4 0.007,10e-4 -0.441,-0.455 -0.502,-0.819 -0.502,-0.819 2.092,0.581 2.219,1.479 2.219,1.479 0.033,0.391 0.612,0.564 0.612,0.564 0,0 -0.687,-0.223 -0.891,0.16"
           style="fill:#010101;fill-opacity:1;fill-rule:nonzero;stroke:none"
           id="path19579" />
        <path
           inkscape:connector-curvature="0"
           d="m 474.779,87.668 c 0,0 -0.66,0.62 -2.656,-0.234 0,0 0.299,-0.269 0.981,-0.336 0.884,-0.24 0.435,-0.997 0.435,-0.997 0.002,0 0.003,0.001 0.006,0.002 -0.373,-0.51 -0.385,-0.884 -0.385,-0.884 1.992,0.864 1.994,1.77 1.994,1.77 -0.021,0.395 0.527,0.647 0.527,0.647 0,0 -0.648,-0.317 -0.902,0.032"
           style="fill:#010101;fill-opacity:1;fill-rule:nonzero;stroke:none"
           id="path19581" />
        <path
           inkscape:connector-curvature="0"
           d="m 469.361,86.148 c 0,0 -0.464,0.778 -2.617,0.501 0,0 0.213,-0.34 0.851,-0.589 0.784,-0.475 0.145,-1.082 0.145,-1.082 l 0.006,0 c -0.498,-0.387 -0.609,-0.743 -0.609,-0.743 2.151,0.288 2.401,1.158 2.401,1.158 0.087,0.383 0.683,0.475 0.683,0.475 0,0 -0.71,-0.126 -0.86,0.28"
           style="fill:#010101;fill-opacity:1;fill-rule:nonzero;stroke:none"
           id="path19583" />
        <path
           inkscape:connector-curvature="0"
           d="m 464.416,106.968 c 0.07,-0.228 0.373,-0.502 0.868,-0.5 0.808,0.004 0.811,0.828 0.811,0.828 -0.775,0.425 -1.518,0.504 -1.518,0.504 0,0 -0.32,-0.324 -0.161,-0.832"
           style="fill:#010101;fill-opacity:1;fill-rule:nonzero;stroke:none"
           id="path19585" />
        <path
           inkscape:connector-curvature="0"
           d="m 474.701,107.096 c -0.954,-0.022 -1.646,-0.397 -1.646,-0.397 0.124,-0.375 0.403,-0.539 0.817,-0.54 0.412,-0.001 0.816,0.595 0.829,0.937"
           style="fill:#010101;fill-opacity:1;fill-rule:nonzero;stroke:none"
           id="path19587" />
      </g>
    </g>
  </g>
</svg>
